<svg width="68" height="67" viewBox="0 0 68 67" fill="none" xmlns="http://www.w3.org/2000/svg">
  <path d="M30.3871 54.6452C43.2144 54.6452 53.6129 44.2466 53.6129 31.4194C53.6129 18.5921 43.2144 8.19354 30.3871 8.19354C17.5598 8.19354 7.16129 18.5921 7.16129 31.4194C7.16129 44.2466 17.5598 54.6452 30.3871 54.6452Z" fill="#FFDED5"/>
  <path d="M32.6994 11.3481C33.3088 11.3481 33.8028 10.8541 33.8028 10.2447C33.8028 9.63522 33.3088 9.14117 32.6994 9.14117C32.0899 9.14117 31.5959 9.63522 31.5959 10.2447C31.5959 10.8541 32.0899 11.3481 32.6994 11.3481Z" fill="#4C241D"/>
  <path d="M8.70967 39.1613C10.1349 39.1613 11.2903 38.0059 11.2903 36.5806C11.2903 35.1554 10.1349 34 8.70967 34C7.28442 34 6.12903 35.1554 6.12903 36.5806C6.12903 38.0059 7.28442 39.1613 8.70967 39.1613Z" stroke="#4C241D" stroke-width="2.22774" stroke-linecap="round" stroke-linejoin="round"/>
  <path d="M44.3226 8.19354V10.2581" stroke="#4C241D" stroke-width="2.22774" stroke-linecap="round" stroke-linejoin="round"/>
  <path d="M44.3226 14.3871V16.4516" stroke="#4C241D" stroke-width="2.22774" stroke-linecap="round" stroke-linejoin="round"/>
  <path d="M40.1936 12.3226H42.2581" stroke="#4C241D" stroke-width="2.22774" stroke-linecap="round" stroke-linejoin="round"/>
  <path d="M46.3871 12.3226H48.4516" stroke="#4C241D" stroke-width="2.22774" stroke-linecap="round" stroke-linejoin="round"/>
  <path d="M64.9677 64.9677H47.4194L48.4516 60.8387H63.9355L64.9677 64.9677Z" fill="white" stroke="#4C241D" stroke-width="2.22774" stroke-linecap="round" stroke-linejoin="round"/>
  <path d="M57.7419 26.7742H46.3871L47.3884 43.2903H64.9987L66 26.7742H61.871" fill="white"/>
  <path d="M57.7419 26.7742H46.3871L47.3884 43.2903H64.9987L66 26.7742H61.871" stroke="#4C241D" stroke-width="2.22774" stroke-linecap="round" stroke-linejoin="round"/>
  <path d="M47.3884 43.2903L48.4516 60.8387H63.9355L64.9987 43.2903H47.3884Z" fill="#FFCE56" stroke="#4C241D" stroke-width="2.22774" stroke-linecap="round" stroke-linejoin="round"/>
  <path d="M58.5058 49.5417C59.1152 49.5417 59.6093 49.0476 59.6093 48.4382C59.6093 47.8288 59.1152 47.3347 58.5058 47.3347C57.8964 47.3347 57.4023 47.8288 57.4023 48.4382C57.4023 49.0476 57.8964 49.5417 58.5058 49.5417Z" fill="#4C241D"/>
  <path d="M53.3445 51.6062C53.9539 51.6062 54.448 51.1122 54.448 50.5027C54.448 49.8933 53.9539 49.3992 53.3445 49.3992C52.7351 49.3992 52.241 49.8933 52.241 50.5027C52.241 51.1122 52.7351 51.6062 53.3445 51.6062Z" fill="#4C241D"/>
  <path d="M59.5381 56.7675C60.1475 56.7675 60.6415 56.2734 60.6415 55.664C60.6415 55.0546 60.1475 54.5605 59.5381 54.5605C58.9286 54.5605 58.4346 55.0546 58.4346 55.664C58.4346 56.2734 58.9286 56.7675 59.5381 56.7675Z" fill="#4C241D"/>
  <path d="M63.2965 23.6774H59.6165C59.7389 23.3469 59.8031 22.9976 59.8065 22.6452C59.8065 21.8239 59.4802 21.0362 58.8994 20.4554C58.3187 19.8747 57.531 19.5484 56.7097 19.5484C55.8884 19.5484 55.1007 19.8747 54.5199 20.4554C53.9392 21.0362 53.6129 21.8239 53.6129 22.6452C53.6162 22.9976 53.6805 23.3469 53.8028 23.6774H53.6129C53.6129 23.1299 53.3954 22.6048 53.0082 22.2176C52.6211 21.8304 52.0959 21.6129 51.5484 21.6129C51.0008 21.6129 50.4757 21.8304 50.0886 22.2176C49.7014 22.6048 49.4839 23.1299 49.4839 23.6774H49.0906C48.7355 23.6773 48.3839 23.7471 48.0558 23.8829C47.7278 24.0188 47.4297 24.2179 47.1786 24.469C46.9276 24.72 46.7284 25.0181 46.5926 25.3462C46.4568 25.6742 46.387 26.0259 46.3871 26.3809V26.7742H57.7419V32.9678C57.7419 33.5153 57.9594 34.0404 58.3466 34.4276C58.7338 34.8148 59.2589 35.0323 59.8065 35.0323C60.354 35.0323 60.8791 34.8148 61.2663 34.4276C61.6535 34.0404 61.871 33.5153 61.871 32.9678V26.7742H66V26.3809C66.0001 26.0259 65.9303 25.6742 65.7945 25.3462C65.6587 25.0181 65.4595 24.72 65.2085 24.469C64.9574 24.2179 64.6593 24.0188 64.3313 23.8829C64.0032 23.7471 63.6516 23.6773 63.2965 23.6774Z" fill="#FFCE56" stroke="#4C241D" stroke-width="2.22774" stroke-linecap="round" stroke-linejoin="round"/>
  <path d="M40.1936 64.9677H22.6452L23.6774 60.8387H39.1613L40.1936 64.9677Z" fill="white" stroke="#4C241D" stroke-width="2.22774" stroke-linecap="round" stroke-linejoin="round"/>
  <path d="M32.9677 26.7742H21.6129L22.6142 43.2903H40.2245L41.2258 26.7742H37.0968" fill="white"/>
  <path d="M32.9677 26.7742H21.6129L22.6142 43.2903H40.2245L41.2258 26.7742H37.0968" stroke="#4C241D" stroke-width="2.22774" stroke-linecap="round" stroke-linejoin="round"/>
  <path d="M22.6142 43.2903L23.6774 60.8387H39.1613L40.2245 43.2903H22.6142Z" fill="#FFCE56" stroke="#4C241D" stroke-width="2.22774" stroke-linecap="round" stroke-linejoin="round"/>
  <path d="M33.7316 49.5417C34.341 49.5417 34.8351 49.0476 34.8351 48.4382C34.8351 47.8288 34.341 47.3347 33.7316 47.3347C33.1222 47.3347 32.6281 47.8288 32.6281 48.4382C32.6281 49.0476 33.1222 49.5417 33.7316 49.5417Z" fill="#4C241D"/>
  <path d="M28.5703 51.6062C29.1798 51.6062 29.6738 51.1122 29.6738 50.5027C29.6738 49.8933 29.1798 49.3992 28.5703 49.3992C27.9609 49.3992 27.4668 49.8933 27.4668 50.5027C27.4668 51.1122 27.9609 51.6062 28.5703 51.6062Z" fill="#4C241D"/>
  <path d="M34.7639 56.7675C35.3733 56.7675 35.8674 56.2734 35.8674 55.664C35.8674 55.0546 35.3733 54.5605 34.7639 54.5605C34.1544 54.5605 33.6604 55.0546 33.6604 55.664C33.6604 56.2734 34.1544 56.7675 34.7639 56.7675Z" fill="#4C241D"/>
  <path d="M38.5223 23.6774H34.8423C34.9647 23.3469 35.0289 22.9976 35.0323 22.6452C35.0323 21.8239 34.706 21.0362 34.1252 20.4554C33.5445 19.8747 32.7568 19.5484 31.9355 19.5484C31.1142 19.5484 30.3265 19.8747 29.7457 20.4554C29.165 21.0362 28.8387 21.8239 28.8387 22.6452C28.842 22.9976 28.9063 23.3469 29.0286 23.6774H28.8387C28.8387 23.1299 28.6212 22.6048 28.234 22.2176C27.8469 21.8304 27.3217 21.6129 26.7742 21.6129C26.2266 21.6129 25.7015 21.8304 25.3144 22.2176C24.9272 22.6048 24.7097 23.1299 24.7097 23.6774H24.3164C23.9613 23.6773 23.6097 23.7471 23.2816 23.8829C22.9536 24.0188 22.6555 24.2179 22.4044 24.469C22.1534 24.72 21.9542 25.0181 21.8184 25.3462C21.6826 25.6742 21.6128 26.0259 21.6129 26.3809V26.7742H27.8064V30.9032C27.8064 31.4508 28.024 31.9759 28.4111 32.3631C28.7983 32.7502 29.3234 32.9678 29.871 32.9678C30.4185 32.9678 30.9436 32.7502 31.3308 32.3631C31.718 31.9759 31.9355 31.4508 31.9355 30.9032V26.7742H41.2258V26.3809C41.2259 26.0259 41.1561 25.6742 41.0203 25.3462C40.8845 25.0181 40.6853 24.72 40.4343 24.469C40.1832 24.2179 39.8851 24.0188 39.5571 23.8829C39.229 23.7471 38.8774 23.6773 38.5223 23.6774Z" fill="#FFCE56" stroke="#4C241D" stroke-width="2.22774" stroke-linecap="round" stroke-linejoin="round"/>
  <path d="M12.8387 23.6774C18.8248 23.6774 23.6774 18.8248 23.6774 12.8387C23.6774 6.85266 18.8248 2 12.8387 2C6.85266 2 2 6.85266 2 12.8387C2 18.8248 6.85266 23.6774 12.8387 23.6774Z" fill="#A9BA5A" stroke="#4C241D" stroke-width="2.22774" stroke-linecap="round" stroke-linejoin="round"/>
  <path d="M12.7427 19.2387C12.7427 19.2387 18.8403 12.7861 18.8403 11.0467C18.8077 10.1799 18.4328 9.36146 17.7977 8.77069C17.1627 8.17993 16.3192 7.86509 15.4524 7.89522C14.9338 7.89157 14.4211 8.00452 13.9521 8.22572C13.483 8.44692 13.0697 8.77071 12.7427 9.17315C12.4159 8.77033 12.0027 8.44614 11.5336 8.22458C11.0646 8.00302 10.5518 7.88975 10.033 7.89315C9.16619 7.86303 8.32277 8.17786 7.68769 8.76863C7.05262 9.35939 6.67771 10.1779 6.64516 11.0446C6.64516 12.784 12.7427 19.2387 12.7427 19.2387Z" fill="#F96E43" stroke="#4C241D" stroke-width="2.22774" stroke-linecap="round" stroke-linejoin="round"/>
  </svg>
  