<svg width="68" height="64" viewBox="0 0 68 64" fill="none" xmlns="http://www.w3.org/2000/svg">
  <path d="M26.9459 48.6761C40.3875 48.6761 51.284 37.7796 51.284 24.338C51.284 10.8965 40.3875 0 26.9459 0C13.5044 0 2.60788 10.8965 2.60788 24.338C2.60788 37.7796 13.5044 48.6761 26.9459 48.6761Z" fill="#EAEAEA"/>
  <path d="M6.00389 5.05212V6.65391" stroke="#4C241D" stroke-width="2.443" stroke-linecap="round" stroke-linejoin="round"/>
  <path d="M6.00389 11.4581V13.0599" stroke="#4C241D" stroke-width="2.443" stroke-linecap="round" stroke-linejoin="round"/>
  <path d="M2 9.056H3.60178" stroke="#4C241D" stroke-width="2.443" stroke-linecap="round" stroke-linejoin="round"/>
  <path d="M8.40601 9.056H10.0078" stroke="#4C241D" stroke-width="2.443" stroke-linecap="round" stroke-linejoin="round"/>
  <path d="M19.0219 2.9081C19.6902 2.9081 20.232 2.36632 20.232 1.69799C20.232 1.02967 19.6902 0.487885 19.0219 0.487885C18.3536 0.487885 17.8118 1.02967 17.8118 1.69799C17.8118 2.36632 18.3536 2.9081 19.0219 2.9081Z" fill="#4C241D"/>
  <path d="M27.5119 55.4681H61.472C62.3727 55.4681 63.2365 55.8259 63.8733 56.4628C64.5102 57.0997 64.868 57.9634 64.868 58.8641C64.868 59.7648 64.5102 60.6286 63.8733 61.2655C63.2365 61.9023 62.3727 62.2601 61.472 62.2601H27.5119V55.4681Z" fill="#FFCE56" stroke="#4C241D" stroke-width="2.443" stroke-linecap="round" stroke-linejoin="round"/>
  <path d="M25.2479 48.6761H59.208C60.1087 48.6761 60.9724 49.0339 61.6093 49.6708C62.2462 50.3076 62.604 51.1714 62.604 52.0721C62.604 52.9728 62.2462 53.8366 61.6093 54.4734C60.9724 55.1103 60.1087 55.4681 59.208 55.4681H25.2479V48.6761Z" fill="#FFCE56" stroke="#4C241D" stroke-width="2.443" stroke-linecap="round" stroke-linejoin="round"/>
  <path d="M27.5119 41.8841H61.472C62.3727 41.8841 63.2365 42.2419 63.8733 42.8788C64.5102 43.5156 64.868 44.3794 64.868 45.2801C64.868 46.1808 64.5102 47.0446 63.8733 47.6814C63.2365 48.3183 62.3727 48.6761 61.472 48.6761H27.5119V41.8841Z" fill="#FFCE56" stroke="#4C241D" stroke-width="2.443" stroke-linecap="round" stroke-linejoin="round"/>
  <path d="M26.3799 35.0921H60.34C61.2407 35.0921 62.1045 35.4499 62.7413 36.0867C63.3782 36.7236 63.736 37.5874 63.736 38.4881C63.736 39.3888 63.3782 40.2525 62.7413 40.8894C62.1045 41.5263 61.2407 41.8841 60.34 41.8841H26.3799V35.0921Z" fill="#FFCE56" stroke="#4C241D" stroke-width="2.443" stroke-linecap="round" stroke-linejoin="round"/>
  <path d="M22.9839 28.3H56.944C57.8447 28.3 58.7085 28.6578 59.3453 29.2947C59.9822 29.9316 60.34 30.7954 60.34 31.6961C60.34 32.5967 59.9822 33.4605 59.3453 34.0974C58.7085 34.7343 57.8447 35.0921 56.944 35.0921H22.9839V28.3Z" fill="#FFCE56" stroke="#4C241D" stroke-width="2.443" stroke-linecap="round" stroke-linejoin="round"/>
  <path d="M25.2479 21.5081H59.208C60.1087 21.5081 60.9724 21.8658 61.6093 22.5027C62.2462 23.1396 62.604 24.0034 62.604 24.9041C62.604 25.8047 62.2462 26.6685 61.6093 27.3054C60.9724 27.9423 60.1087 28.3001 59.208 28.3001H25.2479V21.5081Z" fill="#FFCE56" stroke="#4C241D" stroke-width="2.443" stroke-linecap="round" stroke-linejoin="round"/>
  <path d="M32.0399 14.716H62.604C63.5047 14.716 64.3685 15.0738 65.0053 15.7107C65.6422 16.3476 66 17.2114 66 18.112C66 19.0127 65.6422 19.8765 65.0053 20.5134C64.3685 21.1503 63.5047 21.508 62.604 21.508H28.6439V18.112C28.6439 17.2114 29.0017 16.3476 29.6386 15.7107C30.2755 15.0738 31.1393 14.716 32.0399 14.716Z" fill="#FFCE56" stroke="#4C241D" stroke-width="2.443" stroke-linecap="round" stroke-linejoin="round"/>
  <path d="M55.812 7.92401H25.2479C23.3724 7.92401 21.8519 9.44445 21.8519 11.32C21.8519 13.1956 23.3724 14.716 25.2479 14.716H55.812C57.6875 14.716 59.208 13.1956 59.208 11.32C59.208 9.44445 57.6875 7.92401 55.812 7.92401Z" fill="#FFCE56" stroke="#4C241D" stroke-width="2.443" stroke-linecap="round" stroke-linejoin="round"/>
  <path d="M27.5119 62.2601C39.3905 62.2601 49.02 52.6307 49.02 40.7521C49.02 28.8735 39.3905 19.244 27.5119 19.244C15.6334 19.244 6.00389 28.8735 6.00389 40.7521C6.00389 52.6307 15.6334 62.2601 27.5119 62.2601Z" fill="#FFCE56" stroke="#4C241D" stroke-width="2.443" stroke-linecap="round" stroke-linejoin="round"/>
  <path d="M27.5119 56.6001C36.2646 56.6001 43.36 49.5047 43.36 40.7521C43.36 31.9995 36.2646 24.9041 27.5119 24.9041C18.7593 24.9041 11.6639 31.9995 11.6639 40.7521C11.6639 49.5047 18.7593 56.6001 27.5119 56.6001Z" stroke="#4C241D" stroke-width="2.443" stroke-linecap="round" stroke-linejoin="round" stroke-dasharray="4.88 4.88"/>
  <path d="M30.6102 33.968C30.4121 33.6215 30.1258 33.3336 29.7805 33.1334C29.4352 32.9332 29.0431 32.8279 28.6439 32.8281H27.8448C26.8558 32.8281 25.9074 33.2209 25.2081 33.9202C24.5088 34.6195 24.1159 35.5679 24.1159 36.5569L24.6299 39.4899C26.3799 43.0161 23.7265 44.1832 22.9839 46.4121H32.0399V44.1481" stroke="#4C241D" stroke-width="2.443" stroke-linecap="round" stroke-linejoin="round"/>
  <path d="M22.9839 39.6201H27.5119" stroke="#4C241D" stroke-width="2.443" stroke-linecap="round" stroke-linejoin="round"/>
  </svg>
  