<svg width="68" height="66" viewBox="0 0 68 66" fill="none" xmlns="http://www.w3.org/2000/svg">
  <path d="M2 20.1091H4.12985" stroke="#4C241D" stroke-width="2.29825" stroke-linecap="round" stroke-linejoin="round"/>
  <path d="M36.182 60.571C49.7093 60.571 60.6754 49.605 60.6754 36.0777C60.6754 22.5504 49.7093 11.5844 36.182 11.5844C22.6548 11.5844 11.6887 22.5504 11.6887 36.0777C11.6887 49.605 22.6548 60.571 36.182 60.571Z" fill="#E5EFEF"/>
  <path d="M6.2597 15.8494V17.9792" stroke="#4C241D" stroke-width="2.29825" stroke-linecap="round" stroke-linejoin="round"/>
  <path d="M6.2597 22.239V24.3688" stroke="#4C241D" stroke-width="2.29825" stroke-linecap="round" stroke-linejoin="round"/>
  <path d="M8.38956 20.1091H10.5194" stroke="#4C241D" stroke-width="2.29825" stroke-linecap="round" stroke-linejoin="round"/>
  <path d="M14.8664 9.10521C15.4952 9.10521 16.0048 8.59553 16.0048 7.96681C16.0048 7.33808 15.4952 6.8284 14.8664 6.8284C14.2377 6.8284 13.728 7.33808 13.728 7.96681C13.728 8.59553 14.2377 9.10521 14.8664 9.10521Z" fill="#4C241D"/>
  <path d="M27.8501 30.67C27.8501 30.67 25.3603 21.0856 22.3305 20.2177C19.3008 19.3498 15.089 23.7096 15.4735 25.7894C15.8579 27.8692 25.2058 31.8765 25.2058 31.8765L27.8501 30.67Z" stroke="#4C241D" stroke-width="2.29825" stroke-linecap="round" stroke-linejoin="round"/>
  <path d="M27.5157 31.0874C27.5157 31.0874 28.8873 25.2974 30.6977 24.733C32.508 24.1686 35.0958 26.7372 34.8913 27.9927C34.6869 29.2483 29.1216 31.7786 29.1216 31.7786L27.5157 31.0874Z" stroke="#4C241D" stroke-width="2.29825" stroke-linecap="round" stroke-linejoin="round"/>
  <path d="M10.528 31.7615H44.7015V61.9788C44.7015 62.7352 44.401 63.4606 43.8662 63.9954C43.3313 64.5303 42.606 64.8307 41.8496 64.8307H13.3798C13.0053 64.8307 12.6345 64.757 12.2885 64.6136C11.9425 64.4703 11.6281 64.2603 11.3632 63.9954C11.0984 63.7306 10.8884 63.4162 10.745 63.0702C10.6017 62.7242 10.528 62.3534 10.528 61.9788V31.7615Z" fill="#F96E43" stroke="#4C241D" stroke-width="2.29825" stroke-linecap="round" stroke-linejoin="round"/>
  <path d="M13.6407 30.753H41.6845C43.0495 30.753 44.3586 31.2953 45.3238 32.2605C46.2891 33.2257 46.8313 34.5348 46.8313 35.8998V40.3725H8.49393V35.8998C8.49393 34.5348 9.03618 33.2257 10.0014 32.2605C10.9666 31.2953 12.2757 30.753 13.6407 30.753Z" fill="#E66353" stroke="#4C241D" stroke-width="2.29825" stroke-linecap="round" stroke-linejoin="round"/>
  <path d="M24.4678 30.753H30.8574V64.8307H24.4678V30.753Z" fill="#77A052" stroke="#4C241D" stroke-width="2.29825" stroke-linecap="round" stroke-linejoin="round"/>
  <path d="M24.4678 30.753H30.8574V40.3374H24.4678V30.753Z" fill="#77A052" stroke="#4C241D" stroke-width="2.29825" stroke-linecap="round" stroke-linejoin="round"/>
  <path d="M61.7403 2H42.5716C42.5716 3.12975 42.1228 4.21322 41.324 5.01207C40.5251 5.81092 39.4416 6.25971 38.3119 6.25971V31.818C39.4416 31.818 40.5251 32.2668 41.324 33.0656C42.1228 33.8645 42.5716 34.9479 42.5716 36.0777H61.7403C61.7403 34.9479 62.1891 33.8645 62.9879 33.0656C63.7868 32.2668 64.8703 31.818 66 31.818V6.25971C64.8703 6.25971 63.7868 5.81092 62.9879 5.01207C62.1891 4.21322 61.7403 3.12975 61.7403 2Z" fill="#FFCE56" stroke="#4C241D" stroke-width="2.29825" stroke-linecap="round" stroke-linejoin="round"/>
  <path d="M48.9995 20.7193C47.7798 18.6855 47.2648 16.3062 47.5343 13.9501C47.8039 11.594 48.8429 9.39248 50.4904 7.68671C48.9011 8.14114 47.4375 8.95509 46.2131 10.0656C44.9886 11.1761 44.036 12.5534 43.429 14.091C42.822 15.6285 42.5768 17.2851 42.7123 18.9326C42.8479 20.58 43.3607 22.1742 44.211 23.5918C45.0612 25.0094 46.2262 26.2125 47.6157 27.1078C49.0053 28.0032 50.5822 28.5669 52.2245 28.7553C53.8667 28.9438 55.5303 28.7519 57.0866 28.1946C58.6429 27.6373 60.05 26.7294 61.1993 25.5413C58.9186 26.1916 56.487 26.0715 54.2814 25.1998C52.0758 24.328 50.2193 22.7532 48.9995 20.7193Z" fill="#FC8C29" stroke="#4C241D" stroke-width="2.29825" stroke-linecap="round" stroke-linejoin="round"/>
  <path d="M54.4072 7.80492L56.3102 8.77507C56.3557 8.79807 56.4072 8.80613 56.4575 8.7981C56.5078 8.79006 56.5543 8.76635 56.5903 8.73034L58.1004 7.21814C58.1366 7.18151 58.1835 7.15745 58.2344 7.1495C58.2853 7.14154 58.3374 7.15011 58.383 7.17394C58.4286 7.19778 58.4654 7.23562 58.488 7.28191C58.5105 7.3282 58.5176 7.3805 58.5082 7.43113L58.1739 9.54075C58.1657 9.59106 58.1738 9.64265 58.197 9.68804C58.2202 9.73342 58.2572 9.77024 58.3027 9.79314L60.2057 10.7633C60.2508 10.7865 60.2873 10.8233 60.3103 10.8684C60.3332 10.9136 60.3412 10.9648 60.3333 11.0149C60.3254 11.0649 60.302 11.1111 60.2662 11.147C60.2305 11.1829 60.1844 11.2067 60.1344 11.2148L58.0248 11.5492C57.9745 11.557 57.9279 11.5806 57.8919 11.6166C57.8559 11.6526 57.8323 11.6991 57.8246 11.7494L57.4902 13.859C57.4823 13.9094 57.4587 13.9559 57.4227 13.9919C57.3867 14.028 57.3402 14.0517 57.2899 14.0596C57.2396 14.0675 57.188 14.0593 57.1427 14.0361C57.0974 14.0128 57.0606 13.9758 57.0376 13.9304L56.0685 12.0274C56.0452 11.9822 56.0083 11.9454 55.9631 11.9223C55.9178 11.8992 55.8664 11.8908 55.8161 11.8985L53.7065 12.2329C53.6559 12.2423 53.6036 12.2352 53.5573 12.2126C53.511 12.1901 53.4731 12.1533 53.4493 12.1076C53.4255 12.062 53.4169 12.0099 53.4249 11.9591C53.4328 11.9082 53.4569 11.8612 53.4935 11.825L55.0036 10.315C55.0394 10.2788 55.0631 10.2324 55.0711 10.1821C55.0791 10.1319 55.0711 10.0804 55.0483 10.0349L54.0835 8.12866C54.0604 8.08337 54.0522 8.03193 54.0602 7.98171C54.0681 7.9315 54.0918 7.88509 54.1277 7.84915C54.1636 7.8132 54.2101 7.78956 54.2603 7.78161C54.3105 7.77367 54.3619 7.78183 54.4072 7.80492Z" fill="#4C241D"/>
  <path d="M53.2209 64.8307H39.3768" stroke="#4C241D" stroke-width="2.29825" stroke-linecap="round" stroke-linejoin="round"/>
  <path d="M56.4156 64.8307H60.6754" stroke="#4C241D" stroke-width="2.29825" stroke-linecap="round" stroke-linejoin="round"/>
  </svg>
  