<svg width="66" height="66" viewBox="0 0 66 66" fill="none" xmlns="http://www.w3.org/2000/svg">
  <path d="M60.1379 7.72415C61.6615 7.72415 62.8966 6.48907 62.8966 4.96553C62.8966 3.44199 61.6615 2.20691 60.1379 2.20691C58.6144 2.20691 57.3793 3.44199 57.3793 4.96553C57.3793 6.48907 58.6144 7.72415 60.1379 7.72415Z" stroke="#4C241D" stroke-width="2.38138" stroke-linecap="round" stroke-linejoin="round"/>
  <path d="M23.7241 47.4483C36.8266 47.4483 47.4483 36.8266 47.4483 23.7241C47.4483 10.6217 36.8266 0 23.7241 0C10.6217 0 0 10.6217 0 23.7241C0 36.8266 10.6217 47.4483 23.7241 47.4483Z" fill="#E5EFEF"/>
  <path d="M21.8891 5.14539L17.835 9.19945" stroke="#4C241D" stroke-width="2.38138" stroke-linecap="round" stroke-linejoin="round"/>
  <path d="M17.835 5.14539L21.8891 9.19945" stroke="#4C241D" stroke-width="2.38138" stroke-linecap="round" stroke-linejoin="round"/>
  <path d="M15.4483 14.3448C16.0577 14.3448 16.5517 13.8508 16.5517 13.2414C16.5517 12.632 16.0577 12.1379 15.4483 12.1379C14.8389 12.1379 14.3448 12.632 14.3448 13.2414C14.3448 13.8508 14.8389 14.3448 15.4483 14.3448Z" fill="#4C241D"/>
  <path d="M6.35144 35.3103C8.74923 47.7341 16.0916 57.5084 25.4146 60.6896H20.9655V64H43.0345V60.6896H38.5854C47.9084 57.5084 55.2474 47.7341 57.6485 35.3103" fill="white"/>
  <path d="M6.35144 35.3103C8.74923 47.7341 16.0916 57.5084 25.4146 60.6896H20.9655V64H43.0345V60.6896H38.5854C47.9084 57.5084 55.2474 47.7341 57.6485 35.3103" stroke="#4C241D" stroke-width="2.38138" stroke-linecap="round" stroke-linejoin="round"/>
  <path d="M24.2759 32C27.9324 32 30.8965 29.0358 30.8965 25.3793C30.8965 21.7228 27.9324 18.7586 24.2759 18.7586C20.6194 18.7586 17.6552 21.7228 17.6552 25.3793C17.6552 29.0358 20.6194 32 24.2759 32Z" fill="#BF7E68" stroke="#4C241D" stroke-width="2.38138" stroke-linecap="round" stroke-linejoin="round"/>
  <path d="M32.5517 27.5862C37.1224 27.5862 40.8276 23.881 40.8276 19.3103C40.8276 14.7397 37.1224 11.0345 32.5517 11.0345C27.9811 11.0345 24.2759 14.7397 24.2759 19.3103C24.2759 23.881 27.9811 27.5862 32.5517 27.5862Z" fill="#F4AEAB" stroke="#4C241D" stroke-width="2.38138" stroke-linecap="round" stroke-linejoin="round"/>
  <path d="M40.8276 32C44.4841 32 47.4483 29.0358 47.4483 25.3793C47.4483 21.7228 44.4841 18.7586 40.8276 18.7586C37.1711 18.7586 34.2069 21.7228 34.2069 25.3793C34.2069 29.0358 37.1711 32 40.8276 32Z" fill="#E2E2E2" stroke="#4C241D" stroke-width="2.38138" stroke-linecap="round" stroke-linejoin="round"/>
  <path d="M24.2759 32C24.2759 30.2441 23.5783 28.5601 22.3367 27.3185C21.0951 26.0768 19.4111 25.3793 17.6552 25.3793C15.8993 25.3793 14.2153 26.0768 12.9736 27.3185C11.732 28.5601 11.0345 30.2441 11.0345 32H24.2759Z" fill="#77A052" stroke="#4C241D" stroke-width="2.38138" stroke-linecap="round" stroke-linejoin="round"/>
  <path d="M38.6207 32C38.6207 30.2441 37.9232 28.5601 36.6815 27.3185C35.4399 26.0768 33.7559 25.3793 32 25.3793C30.2441 25.3793 28.5601 26.0768 27.3185 27.3185C26.0769 28.5601 25.3793 30.2441 25.3793 32H38.6207Z" fill="#FFCE56" stroke="#4C241D" stroke-width="2.38138" stroke-linecap="round" stroke-linejoin="round"/>
  <path d="M52.9655 32C52.9655 30.2441 52.268 28.5601 51.0264 27.3185C49.7847 26.0768 48.1007 25.3793 46.3448 25.3793C44.5889 25.3793 42.9049 26.0768 41.6633 27.3185C40.4217 28.5601 39.7241 30.2441 39.7241 32H52.9655Z" fill="#816982" stroke="#4C241D" stroke-width="2.38138" stroke-linecap="round" stroke-linejoin="round"/>
  <path d="M64 64C64 62.2441 63.3025 60.5601 62.0608 59.3185C60.8192 58.0768 59.1352 57.3793 57.3793 57.3793C55.6234 57.3793 53.9394 58.0768 52.6978 59.3185C51.4562 60.5601 50.7586 62.2441 50.7586 64H64Z" fill="#E66353" stroke="#4C241D" stroke-width="2.38138" stroke-linecap="round" stroke-linejoin="round"/>
  <path d="M27.3335 42.2301L30.2102 42.5423L32.0232 40.2869L33.8361 42.5423L36.7128 42.2301L36.3995 45.1068L38.6549 46.9197L36.3995 48.7327L36.7128 51.6094L33.8361 51.296L32.0232 53.5514L30.2102 51.296L27.3335 51.6094L27.6458 48.7327L25.3904 46.9197L27.6458 45.1068L27.3335 42.2301Z" fill="#FFCE56" stroke="#4C241D" stroke-width="2.38138" stroke-linecap="round" stroke-linejoin="round"/>
  <path d="M12.9986 35.3103H6.06896C5.62998 35.3103 5.20898 35.136 4.89858 34.8256C4.58817 34.5152 4.41379 34.0942 4.41379 33.6552C4.41379 33.2162 4.58817 32.7952 4.89858 32.4848C5.20898 32.1744 5.62998 32 6.06896 32H57.931C58.37 32 58.791 32.1744 59.1014 32.4848C59.4118 32.7952 59.5862 33.2162 59.5862 33.6552C59.5862 34.0942 59.4118 34.5152 59.1014 34.8256C58.791 35.136 58.37 35.3103 57.931 35.3103H20.9655" fill="white"/>
  <path d="M12.9986 35.3103H6.06896C5.62998 35.3103 5.20898 35.136 4.89858 34.8256C4.58817 34.5152 4.41379 34.0942 4.41379 33.6552C4.41379 33.2162 4.58817 32.7952 4.89858 32.4848C5.20898 32.1744 5.62998 32 6.06896 32H57.931C58.37 32 58.791 32.1744 59.1014 32.4848C59.4118 32.7952 59.5862 33.2162 59.5862 33.6552C59.5862 34.0942 59.4118 34.5152 59.1014 34.8256C58.791 35.136 58.37 35.3103 57.931 35.3103H20.9655" stroke="#4C241D" stroke-width="2.38138" stroke-linecap="round" stroke-linejoin="round"/>
  <path d="M25.3793 60.6896H30.8966" stroke="#4C241D" stroke-width="2.38138" stroke-linecap="round" stroke-linejoin="round"/>
  <path d="M62.8965 64H2.20689" stroke="#4C241D" stroke-width="2.38138" stroke-linecap="round" stroke-linejoin="round"/>
  </svg>
  