<svg width="64" height="64" viewBox="0 0 64 64" fill="none" xmlns="http://www.w3.org/2000/svg">
  <g clip-path="url(#clip0_6_2)">
  <path d="M24.5285 24.7533C24.5285 25.6837 24.2526 26.5932 23.7357 27.3667C23.2188 28.1403 22.4842 28.7432 21.6246 29.0993C20.7651 29.4553 19.8193 29.5485 18.9068 29.367C17.9943 29.1855 17.1561 28.7374 16.4983 28.0796C15.8404 27.4217 15.3924 26.5835 15.2109 25.6711C15.0294 24.7586 15.1225 23.8127 15.4786 22.9532C15.8346 22.0937 16.4375 21.359 17.2111 20.8421C17.9846 20.3252 18.8941 20.0493 19.8245 20.0493C21.072 20.0496 22.2683 20.5453 23.1504 21.4274C24.0326 22.3095 24.5282 23.5058 24.5285 24.7533Z" stroke="#FFCE56" stroke-width="4"/>
  <path d="M49.8268 24.7533C49.8268 25.6837 49.5509 26.5932 49.034 27.3667C48.5171 28.1403 47.7824 28.7432 46.9229 29.0993C46.0634 29.4553 45.1175 29.5485 44.205 29.367C43.2926 29.1855 42.4544 28.7374 41.7965 28.0796C41.1387 27.4217 40.6906 26.5835 40.5091 25.6711C40.3276 24.7586 40.4208 23.8127 40.7768 22.9532C41.1329 22.0937 41.7358 21.359 42.5094 20.8421C43.2829 20.3252 44.1924 20.0493 45.1228 20.0493C46.3703 20.0496 47.5666 20.5453 48.4487 21.4274C49.3308 22.3095 49.8265 23.5058 49.8268 24.7533Z" stroke="#FFCE56" stroke-width="4"/>
  <path d="M43.9387 49.2901C43.9387 35.659 20.7716 35.659 20.7716 49.2901" stroke="#FFCE56" stroke-width="4" stroke-linecap="round"/>
  <path d="M32 62.1714C48.6632 62.1714 62.1714 48.6632 62.1714 32C62.1714 15.3368 48.6632 1.82858 32 1.82858C15.3368 1.82858 1.82857 15.3368 1.82857 32C1.82857 48.6632 15.3368 62.1714 32 62.1714Z" stroke="#FFCE56" stroke-width="4"/>
  </g>
  <defs>
  <clipPath id="clip0_6_2">
  <rect width="64" height="64" fill="white"/>
  </clipPath>
  </defs>
  </svg>
  